<?xml version="1.0" encoding="UTF-8"?>
<svg width="130px" height="40px" viewBox="0 0 130 40" version="1.1" xmlns="http://www.w3.org/2000/svg" xmlns:xlink="http://www.w3.org/1999/xlink">
    <!-- Generator: Sketch 51.3 (57544) - http://www.bohemiancoding.com/sketch -->
    <title>Branding / Lockup / Light</title>
    <desc>Created with Sketch.</desc>
    <defs>
        <path d="M113.393419,18.1224516 C113.743097,17.3405161 114.505032,16.1289032 116.045032,16.1289032 C118.368258,16.1289032 119.255355,17.8069677 119.255355,20.3237419 L119.255355,25.9947097 L115.803742,25.9947097 L115.803742,20.7663226 C115.803742,19.8953548 115.663097,19.0495484 114.868258,19.0495484 C114.132129,19.0495484 113.788258,20.3540645 113.788258,21.1966452 L113.788258,25.9966452 L110.273419,25.9966452 L110.273419,20.7663226 C110.273419,19.6514839 110.116645,19.0495484 109.332129,19.0495484 C108.653419,19.0495484 108.257935,20.2501935 108.257935,21.1966452 L108.257935,25.9947097 L104.756645,25.9947097 L104.756645,16.3508387 L107.321806,16.3508387 C107.321806,16.3508387 107.490839,17.072129 107.268258,18.0166452 C107.156,18.496 106.920516,19.076 107.170839,19.076 C107.343742,19.076 107.372129,18.7605161 107.596645,18.2469677 C107.925032,17.496 108.617935,16.1289032 110.236,16.1289032 C111.77471,16.1289032 112.499226,17.0637419 112.739226,17.9392258 C112.921806,18.6043871 112.734065,19.076 112.95729,19.076 C113.115355,19.076 113.197935,18.5592258 113.393419,18.1224516 Z M52.6367742,18.1224516 C52.9864516,17.3405161 53.7483871,16.1289032 55.2883871,16.1289032 C57.6116129,16.1289032 58.4987097,17.8069677 58.4987097,20.3237419 L58.4987097,26 L55.0470968,26 L55.0470968,20.7663226 C55.0470968,19.8953548 54.9064516,19.0495484 54.1116129,19.0495484 C53.3754839,19.0495484 53.0316129,20.3540645 53.0316129,21.1966452 L53.0316129,25.9966452 L49.5167742,25.9966452 L49.5167742,20.7663226 C49.5167742,19.6514839 49.36,19.0495484 48.5754839,19.0495484 C47.8967742,19.0495484 47.5012903,20.2501935 47.5012903,21.1966452 L47.5012903,26 L44,26 L44,16.3508387 L46.5651613,16.3508387 C46.5651613,16.3508387 46.7341935,17.072129 46.5116129,18.0166452 C46.3993548,18.496 46.163871,19.076 46.4141935,19.076 C46.5870968,19.076 46.6154839,18.7605161 46.84,18.2469677 C47.1683871,17.496 47.8612903,16.1289032 49.4793548,16.1289032 C51.0180645,16.1289032 51.7425806,17.0637419 51.9825806,17.9392258 C52.1651613,18.6043871 51.9774194,19.076 52.2006452,19.076 C52.3587097,19.076 52.4412903,18.5592258 52.6367742,18.1224516 Z M60.0614839,17.1168387 C60.0614839,17.1168387 61.9853548,16.1310323 64.6672903,16.1310323 C67.8447097,16.1310323 68.8930968,18.2878065 68.8930968,21.2510323 L68.8930968,25.9968387 L66.2543871,25.9968387 C66.1330968,25.5084516 66.0969677,24.9284516 66.1130968,24.1613548 C66.122129,23.7232903 66.1866452,23.5110323 65.9956774,23.5110323 C65.8279355,23.5110323 65.7937419,23.8078065 65.6072903,24.2471613 C65.3389032,24.882 64.4640645,26.2194194 62.4737419,26.2194194 C61.109871,26.2194194 59.4911613,25.3949032 59.4911613,23.4226452 C59.4911613,21.3426452 60.9311613,20.045871 63.7847097,20.045871 C64.9956774,20.045871 65.3924516,20.1516774 65.3924516,20.1516774 C65.4550323,19.5349032 65.286,18.7936129 63.909871,18.7936129 C62.1866452,18.7936129 60.0614839,20.0149032 60.0614839,20.0149032 L60.0614839,17.1168387 Z M62.5440645,23.1213548 C62.5440645,23.6761935 62.9782581,23.9342581 63.8150323,23.7413548 C64.706,23.5355484 65.4124516,22.4252258 65.4124516,22.1000645 C65.4124516,22.1000645 64.9466452,22.0574839 64.4524516,22.0574839 C63.329871,22.0574839 62.5440645,22.3613548 62.5440645,23.1213548 Z M75,25.9971613 L75,13.4313548 L78.5006452,13.4313548 L78.5006452,25.9971613 L75,25.9971613 Z M84.8709677,19.6016774 C83.3922581,19.6016774 82.5864516,20.308129 82.5864516,21.1752258 C82.5864516,22.0784516 83.1948387,22.7571613 84.8870968,22.7571613 C86.4851613,22.7571613 87.6548387,21.9590968 88.0748387,21.7242581 L88.0748387,24.995871 C88.0748387,24.995871 86.7477419,26.2190968 84.5219355,26.2190968 C81.6716129,26.2190968 79.6664516,24.3661935 79.6664516,21.0255484 C79.6664516,17.6836129 81.8754839,16.1313548 84.5283871,16.1313548 C87.0458065,16.1313548 88.0696774,17.1165161 88.0696774,17.1165161 L88.0696774,20.4713548 C87.7787097,20.2952258 86.4825806,19.6016774 84.8709677,19.6016774 Z M92.3990968,18.3852903 C92.5545806,18.0517419 93.3249032,16.1310968 95.352,16.1310968 C98.1429677,16.1310968 98.5532903,18.4169032 98.5532903,20.8923871 L98.5532903,25.9969032 L95,25.9969032 L95,20.6827097 C95,19.5923871 94.8242581,19.0510968 94.0932903,19.0510968 C93.2113548,19.0510968 93,20.4175484 93,21.1988387 L93,25.9969032 L89.3984516,25.9969032 L89.3984516,13.4310968 L92.4210323,13.4310968 C92.4210323,13.4310968 92.5668387,13.7917419 92.5668387,14.867871 C92.5668387,16.4536774 92.2210323,17.7446452 92.0584516,18.2362581 C91.972,18.4969032 91.7384516,19.0756129 91.9603871,19.0756129 C92.115871,19.0756129 92.2429677,18.7181935 92.3990968,18.3852903 Z M99.8823226,25.9971613 L99.8823226,16.3642581 C99.8823226,16.3642581 100.477806,16.708129 101.636516,16.708129 C102.794581,16.708129 103.382968,16.3642581 103.382968,16.3642581 L103.382968,25.9971613 L99.8823226,25.9971613 Z M99.4796129,14.2866452 C99.4796129,13.5143871 100.438968,12.8885806 101.622194,12.8885806 C102.805419,12.8885806 103.765419,13.5143871 103.765419,14.2866452 C103.765419,15.0595484 102.805419,15.6853548 101.622194,15.6853548 C100.438968,15.6853548 99.4796129,15.0595484 99.4796129,14.2866452 Z M70.2168387,25.9971613 L70.2168387,16.3642581 C70.2168387,16.3642581 70.8123226,16.708129 71.9710323,16.708129 C73.1290968,16.708129 73.7174839,16.3642581 73.7174839,16.3642581 L73.7174839,25.9971613 L70.2168387,25.9971613 Z M69.8138065,14.2866452 C69.8138065,13.5143871 70.7738065,12.8885806 71.9570323,12.8885806 C73.1402581,12.8885806 74.0996129,13.5143871 74.0996129,14.2866452 C74.0996129,15.0595484 73.1402581,15.6853548 71.9570323,15.6853548 C70.7738065,15.6853548 69.8138065,15.0595484 69.8138065,14.2866452 Z M123.418903,18.2472903 C123.777613,17.4782581 124.602129,16.1292258 126.401484,16.1292258 C128.72471,16.1292258 130,17.8943871 130,21.1743871 C130,24.0685806 128.975677,26.209871 126.44471,26.209871 C125.262129,26.209871 124.414194,25.4595484 124,24.7563226 L124,29 L120.578903,29 L120.578903,16.3511613 L123.144065,16.3511613 C123.144065,16.3511613 123.313097,17.0724516 123.090516,18.0169677 C122.978258,18.4963226 122.729226,19.0763226 122.980194,19.0763226 C123.152452,19.0763226 123.182129,18.7550323 123.418903,18.2472903 Z M124.04729,21.4879355 C124.04729,22.9066452 124.637613,23.9247097 125.440839,23.9247097 C126.420194,23.9247097 126.802774,23.0930968 126.802774,21.4879355 C126.802774,19.9447097 126.38729,19.0511613 125.413097,19.0511613 C124.653742,19.0511613 124.04729,20.109871 124.04729,21.4879355 Z M36.0272798,23.9398194 C36.3370597,24.1068681 36.6234589,24.3434756 36.8610738,24.6365435 C37.2165443,25.0749491 37.6403127,25.8543901 37.6403127,27.0779187 C37.6403127,28.7706549 36.994338,30.5723646 36.7843873,31.1141813 C35.6379578,33.8760771 33.682186,36.1541118 31.1285098,37.7020486 C28.648486,39.2053075 25.6377848,40 22.4220114,40 C22.2242568,40 22.0234085,39.9970095 21.8248805,39.9910883 C18.7106021,39.8980841 15.762666,39.0219906 13.2995976,37.4576061 C11.0166144,36.0075779 9.20207891,33.9981489 8.01400433,31.6142509 C6.69028579,31.4227998 5.37495575,30.8018547 4.30211905,29.8462141 C2.96775127,28.6577939 2.14276228,27.1014837 1.97903763,25.4640117 C1.89265384,24.6002987 1.94018872,23.7710362 2.12003596,22.9877674 L1.55241355,22.5043848 C0.639969899,21.7297884 0.107805298,20.6227095 0.0150557601,19.3040236 C-0.0613927042,18.2180575 0.15355539,16.9699471 0.653950746,15.5945615 C1.81929901,12.3909705 4.50064709,8.57630307 7.8264825,5.39017654 C9.45772019,3.82752655 11.1543407,2.51727381 12.7328676,1.60104787 C14.5632877,0.538706644 16.2243909,-7.10542736e-15 17.6701295,-7.10542736e-15 C18.8845595,-7.10542736e-15 19.9255675,0.372913947 20.7641208,1.10827513 C20.8132025,1.15121855 21.5481192,1.87503645 22.1056278,2.42486771 C22.2455552,2.36541679 22.3462173,2.32271261 22.3492515,2.32145661 C24.1831817,1.55798483 25.9871275,1.15516599 27.5692835,1.15516599 C30.9014252,1.15516599 33.0572124,2.95412441 33.0614959,5.73826943 C33.0640541,7.45630522 32.2262741,9.38217998 30.6817176,11.2465105 C31.0818079,11.8575271 31.4049142,12.5802086 31.6242052,13.3671857 C31.9203017,14.3246804 31.9617683,15.2731438 31.981758,15.7307484 C31.9967502,16.0748938 32.0120399,16.6272371 32.0244144,17.1146269 C33.0441834,17.4227669 34.3246506,17.9437698 35.0940136,18.7556875 C35.7247581,19.4214301 36.0786223,20.1200681 36.2068296,20.9533977 C36.2902982,21.4462303 36.3283142,22.3393098 35.8451124,23.3662437 C35.877655,23.4599656 35.9113875,23.5615226 35.9448821,23.6693596 C35.9740336,23.7631413 36.0015789,23.8539326 36.0272798,23.9398194 Z M21.8636699,38.6758116 C28.1217947,38.8626573 33.3752618,35.9105664 35.5765016,30.6074131 C35.7204746,30.2351571 36.3314674,28.5582106 36.3314674,27.0779187 C36.3314674,25.5901505 35.4948773,24.9736912 34.9619987,24.9736912 C34.9457572,24.9160944 34.8403951,24.5284074 34.6954107,24.0612931 C34.5504859,23.5941787 34.4003851,23.2653446 34.4003851,23.2653446 C34.9817504,22.3903276 34.9921022,21.6077765 34.9148803,21.1647655 C34.8322446,20.6153529 34.6048625,20.147162 34.1462907,19.6633009 C33.6877783,19.1793202 32.7499907,18.6837364 31.432043,18.3117196 C31.2812878,18.2691948 30.784224,18.1321108 30.7404967,18.1187134 C30.7371056,18.0899449 30.704206,16.4797462 30.674162,15.7885246 C30.6522686,15.2888139 30.6096717,14.5087748 30.3689036,13.740279 C30.081969,12.7003067 29.5819901,11.7901813 28.9579684,11.2079332 C30.6801113,9.41328106 31.7551493,7.43632876 31.7525911,5.74024316 C31.7476532,2.47869651 27.7632306,1.49177541 22.8531569,3.53583428 C22.8479216,3.53798743 21.8201805,3.97609403 21.8127439,3.97980224 C21.8081629,3.9752567 19.9319927,2.12462264 19.903793,2.09986139 C14.3055642,-2.80902589 -3.19774301,16.7500265 2.39834407,21.5002983 L3.62140051,22.5418257 C3.30412451,23.368038 3.17954624,24.3145276 3.2813387,25.3324302 C3.41204476,26.6397523 4.08282797,27.8930063 5.17006197,28.8613864 C6.20214598,29.7806626 7.55918059,30.3624921 8.87605744,30.3614155 C11.0537975,35.4065495 16.0294919,38.5015857 21.8636699,38.6758116 Z M7.57621938,20.8173723 C7.81746336,20.768448 8.10897891,20.7402775 8.42333975,20.7566654 C9.55400361,20.8189274 11.2201637,21.6917913 11.6007997,24.1678561 C11.9379463,26.3609012 11.4025096,28.5937795 9.35720087,28.9444442 C9.16712084,28.9770405 8.97311427,28.9899594 8.77756088,28.9852943 C6.8873503,28.9343363 4.84567061,27.2235973 4.64279959,25.19479 C4.4185111,22.9523421 5.55821789,21.2264712 7.57621938,20.8173723 Z M9.62950019,27.0228159 C10.0549344,27.0389048 10.3522208,26.7989479 10.4274794,26.6233464 C10.4718611,26.5196363 10.4344401,26.4564174 10.4102264,26.4293235 C10.3441892,26.3460085 10.2355551,26.3714277 10.130431,26.3960693 C10.0569572,26.4132347 9.973786,26.4326729 9.88258328,26.4311178 C9.68714888,26.4274096 9.52163944,26.3433769 9.42871142,26.1998932 C9.30770272,26.0130475 9.3146634,25.7344536 9.4483441,25.4153684 C9.46631098,25.372425 9.48754997,25.324637 9.51063324,25.2725427 C9.72373705,24.7919113 10.0804569,23.9874699 9.68000972,23.2207683 C9.37855885,22.6438433 8.88708744,22.2845061 8.2960248,22.2090262 C7.72858087,22.136776 7.1444789,22.3482633 6.77193394,22.7616087 C6.18414341,23.4135353 6.09222677,24.3006338 6.20591784,24.6140371 C6.24762241,24.728812 6.31270772,24.760571 6.36006412,24.7670903 C6.4600718,24.7806671 6.60797132,24.7074599 6.70060187,24.4569766 C6.70726508,24.4389738 6.71612953,24.4109829 6.72713573,24.3755157 C6.76842385,24.2429772 6.84528877,23.9963815 6.97117589,23.7986504 C7.12300194,23.5602486 7.359427,23.3960708 7.6369617,23.3363208 C7.91967228,23.2754345 8.20868912,23.3296819 8.45058753,23.4888956 C8.86233836,23.7598338 9.02088712,24.2670806 8.8451449,24.7510612 C8.75423964,25.0013652 8.60663759,25.479963 8.63918024,25.8732122 C8.70497946,26.6692205 9.19192941,26.988844 9.62950019,27.0228159 Z M34.0781415,26.0720498 C34.0781415,26.0720498 34.4155856,26.0112831 34.6975227,26.185808 C34.9639918,26.3506438 35.1594262,26.693294 35.0259834,27.5792562 C34.7542195,29.2345515 34.0543443,30.5779389 32.8781088,31.8137882 C32.1622299,32.5885641 31.2929781,33.2622614 30.2984937,33.7520436 C29.7703151,34.0309366 29.2078686,34.272269 28.6138313,34.4673087 C24.1798204,35.9231983 19.6411613,34.3225691 18.1780508,30.8853611 C18.0612661,30.6269829 17.9625672,30.3564633 17.8846909,30.0735032 C17.2611451,27.808507 17.790573,25.0909303 19.445013,23.3795932 C19.5470434,23.2706796 19.6511561,23.1423876 19.6511561,22.9809611 C19.6511561,22.8459704 19.5657242,22.7035035 19.4917745,22.6026044 C18.9129674,21.7585091 16.9078164,20.3201438 17.3102268,17.5365969 C17.5993032,15.5369168 19.3388775,14.1285163 20.9608343,14.2120107 C21.0977872,14.2190683 21.2350374,14.2276211 21.3718118,14.2357552 C22.0746617,14.2775622 22.6878557,14.368174 23.2664843,14.3925166 C24.2348514,14.4345629 25.1057689,14.2930529 26.13702,13.4291007 C26.4850539,13.1375281 26.7639569,12.8848916 27.2359742,12.8045073 C27.2854723,12.7960741 27.4089202,12.7515756 27.6556376,12.7632385 C27.9074118,12.7766957 28.147109,12.8462545 28.362533,12.990396 C29.1893663,13.5435767 29.3066864,14.8832558 29.3495808,15.8632988 C29.3739135,16.4227594 29.4412595,17.7762546 29.4642238,18.1647789 C29.5168156,19.0532531 29.7490761,19.1785546 30.2191301,19.3341198 C30.4833978,19.4215617 30.7288063,19.4868142 31.0903451,19.5888497 C32.1849562,19.8977672 32.833846,20.2112302 33.2429197,20.6138098 C33.4868408,20.8654295 33.6002939,21.1327792 33.6353353,21.3877483 C33.764435,22.3342978 32.9043452,23.5035191 30.6276088,24.5659201 C28.13878,25.7272465 25.1195118,26.0213312 23.0333909,25.787774 C22.8733548,25.7698311 22.304483,25.7049973 22.3025198,25.704758 C20.633861,25.4787369 19.6819735,27.6468412 20.6834186,29.1320974 C21.3288578,30.0894126 23.0869346,30.712451 24.8459037,30.7126903 C28.8788725,30.7132884 31.9789321,28.9817954 33.1319653,27.4864912 C33.1664117,27.4417535 33.1698028,27.4368491 33.2241794,27.3543116 C33.2809357,27.2683052 33.2341147,27.2209956 33.1634966,27.2695612 C32.2213659,27.9176001 28.036809,30.4904372 23.560915,29.7164389 C23.560915,29.7164389 23.0170303,29.6265448 22.520502,29.4322826 C22.1260041,29.278093 21.3003012,28.8962076 21.1998771,28.0444566 C24.8121711,29.1675646 27.0864683,28.1059411 27.0864683,28.1059411 C27.1275185,28.0885364 27.1558966,28.0413465 27.1511372,27.9943958 C27.1453664,27.936799 27.0942024,27.8948724 27.0369107,27.9007337 C27.0369107,27.9007337 24.0759457,28.3414121 21.2787053,27.3119065 C21.5833688,26.3164326 22.3936035,26.6759491 23.6180878,26.7752932 C25.8251579,26.9074728 27.8033586,26.5834234 29.2652793,26.1615851 C30.5320631,25.7959679 32.1960219,25.0754396 33.4883282,24.050001 C33.9242331,25.0125795 34.0781415,26.0720498 34.0781415,26.0720498 Z M19.9129252,19.6585281 C19.9237529,19.7081104 19.9607575,19.7454317 20.0476173,19.7576927 C20.2516782,19.7811979 20.9645824,19.4188105 21.7857043,19.3682712 C22.3655228,19.3325648 22.8456906,19.5148052 23.2156178,19.6779662 C23.5854856,19.8411273 23.8126893,19.9492634 23.9016908,19.8547639 C23.9588635,19.7957317 23.9417295,19.6833491 23.853442,19.5383104 C23.670977,19.2387831 23.2955169,18.9349494 22.8970925,18.7643719 C22.0823958,18.4118531 21.1108756,18.5290803 20.3613237,19.0705382 C20.1138924,19.2527785 19.8792522,19.5052356 19.9129252,19.6585281 Z M23.3383518,20.7164434 C23.5804882,20.7437166 23.6948337,20.7589083 23.7479014,20.6754138 C23.7636671,20.6514899 23.7827048,20.5996349 23.734218,20.5205663 C23.6213004,20.3365317 23.1350049,20.0255208 22.4715393,20.1046492 C21.9899437,20.1811459 21.7241886,20.340838 21.5536818,20.4892858 C21.408043,20.6172787 21.3180896,20.7585494 21.318863,20.8580131 C21.3192795,20.9053226 21.3396261,20.9325361 21.3556892,20.9462325 C21.3776421,20.9656707 21.4037,20.9764963 21.4349338,20.9764963 C21.5437464,20.9764963 21.7874296,20.8782886 21.7874296,20.8782886 C22.4578559,20.637016 22.9000076,20.6661433 23.3383518,20.7164434 Z M26.5791718,20.8029881 C26.25202,20.6414419 25.891909,20.7048403 25.7747079,20.9446176 C25.6575067,21.1844548 25.8276566,21.5097602 26.154749,21.6713662 C26.4817818,21.8329124 26.8419522,21.7695141 26.9592129,21.5296769 C27.0763545,21.2899593 26.9062046,20.9645343 26.5791718,20.8029881 Z M28.4609939,17.5077685 C28.2762087,16.618457 28.0259813,16.0802886 27.5091064,16.1640821 C26.992172,16.2478158 26.9731342,16.8920867 27.1579194,17.7814581 C27.2618536,18.281707 27.4470552,18.7092871 27.6532578,18.9741846 C27.9245458,18.9415883 28.18453,18.9402725 28.4232753,18.9742444 C28.561537,18.6554583 28.5853342,18.1060457 28.4609939,17.5077685 Z M28.2350991,21.1507819 C28.5008542,21.1552677 28.7212161,20.8619605 28.7274034,20.4956855 C28.7336501,20.1292908 28.5232235,19.8287467 28.2574684,19.8242011 C27.9917728,19.8196556 27.7713514,20.1130225 27.7652236,20.4792976 C27.7589768,20.8455727 27.9694035,21.1462364 28.2350991,21.1507819 Z M25.734324,9.52479639 C25.7977435,9.56056263 25.7525289,9.68401001 25.6816728,9.66768194 C24.2638363,9.34094114 21.9428967,9.09314924 19.5321821,9.68424925 C17.379905,10.2120107 15.7371851,11.0268591 14.5387588,11.9031321 C14.4782544,11.9474511 14.4054351,11.867007 14.4544573,11.8100681 C15.8418928,10.1982545 17.5499954,8.7967918 19.079976,8.00999421 C19.1329248,7.98278077 19.1890862,8.0404972 19.1604105,8.09283075 C19.0389854,8.3140073 18.8049996,8.78752129 18.7308713,9.14685842 C18.7192702,9.20284037 18.779953,9.24500626 18.826893,9.2128286 C19.7787805,8.56048338 21.4346482,7.86154635 22.8870501,7.77171207 C22.9494582,7.76782443 22.9796211,7.84826858 22.9299445,7.88654684 C22.7091066,8.05682527 22.4675652,8.29253559 22.2911685,8.53099716 C22.2611246,8.57154819 22.2893242,8.62998234 22.3395958,8.6303412 C23.3595432,8.63757818 24.7973098,8.99643683 25.734324,9.52479639 Z M18.5179876,2.76467096 C18.9779873,2.89553475 20.5014832,4.6714664 20.5014832,4.6714664 C20.5014832,4.6714664 17.673009,6.24918846 15.0499045,8.44845369 C11.5155463,11.1844519 8.84573983,15.1608449 7.24627137,19.4758212 C5.99007735,19.7213403 4.88285372,20.4370839 4.20582374,21.4258591 C3.80109307,21.0864984 3.04719818,20.4296674 2.91405292,20.1737414 C1.83312518,18.1103042 4.09373898,14.0985037 5.67292033,11.8329094 C9.57571855,6.23381734 15.6882641,1.99581631 18.5179876,2.76467096 Z" id="path-1"></path>
    </defs>
    <g id="Page-1" stroke="none" stroke-width="1" fill="none" fill-rule="evenodd">
        <g id="Desktop-HD" transform="translate(-223.000000, -126.000000)">
            <g id="Branding-/-Lockup-/-Light" transform="translate(223.000000, 126.000000)">
                <mask id="mask-2" fill="white">
                    <use xlink:href="#path-1"></use>
                </mask>
                <g id="Lockup"></g>
                <g id="Color-/-Coconut" mask="url(#mask-2)" fill="#FFFFFF" fill-rule="evenodd">
                    <rect id="Color" x="0" y="0" width="130" height="40"></rect>
                </g>
            </g>
        </g>
    </g>
</svg>